{
  "accessors": [
    {
      "bufferView": 2,
      "componentType": 5126,
      "count": 65532,
      "max": [
        24.661256790161133,
        17.890390396118164,
        34.836662292480469
      ],
      "min": [
        -24.485179901123047,
        5.8362979888916016,
        -14.573131561279297
      ],
      "type": "VEC3"
    },
    {
      "bufferView": 2,
      "byteOffset": 786384,
      "componentType": 5126,
      "count": 65532,
      "max": [
        0.99999988079071045,
        0.99998432397842407,
        0.99985140562057495
      ],
      "min": [
        -0.99994182586669922,
        -0.99999809265136719,
        -0.99997043609619141
      ],
      "type": "VEC3"
    },
    {
      "bufferView": 1,
      "componentType": 5126,
      "count": 65532,
      "max": [
        0.99876099824905396,
        0.99975597858428955
      ],
      "min": [
        0.0019660000689327717,
        0.0032790000550448895
      ],
      "type": "VEC2"
    },
    {
      "bufferView": 0,
      "componentType": 5125,
      "count": 197202,
      "max": [
        65531
      ],
      "min": [
        0
      ],
      "type": "SCALAR"
    },
    {
      "bufferView": 2,
      "byteOffset": 1572768,
      "componentType": 5126,
      "count": 45256,
      "max": [
        24.651523590087891,
        17.861032485961914,
        34.763553619384766
      ],
      "min": [
        -24.224216461181641,
        5.8059659004211426,
        -14.62202262878418
      ],
      "type": "VEC3"
    },
    {
      "bufferView": 2,
      "byteOffset": 2115840,
      "componentType": 5126,
      "count": 45256,
      "max": [
        0.99975144863128662,
        0.99998730421066284,
        0.99973809719085693
      ],
      "min": [
        -0.99994391202926636,
        -0.99999725818634033,
        -0.99996232986450195
      ],
      "type": "VEC3"
    },
    {
      "bufferView": 1,
      "byteOffset": 524256,
      "componentType": 5126,
      "count": 45256,
      "max": [
        0.99874997138977051,
        0.99975597858428955
      ],
      "min": [
        0.0019549999851733446,
        0.0035379999317228794
      ],
      "type": "VEC2"
    },
    {
      "bufferView": 0,
      "byteOffset": 788808,
      "componentType": 5125,
      "count": 103134,
      "max": [
        45255
      ],
      "min": [
        0
      ],
      "type": "SCALAR"
    },
    {
      "bufferView": 2,
      "byteOffset": 2658912,
      "componentType": 5126,
      "count": 65532,
      "max": [
        24.609720230102539,
        17.822916030883789,
        34.822898864746094
      ],
      "min": [
        -24.472724914550781,
        5.747520923614502,
        -14.477541923522949
      ],
      "type": "VEC3"
    },
    {
      "bufferView": 2,
      "byteOffset": 3445296,
      "componentType": 5126,
      "count": 65532,
      "max": [
        0.99999558925628662,
        0.99962955713272095,
        0.99997109174728394
      ],
      "min": [
        -1,
        -0.99999886751174927,
        -0.99999254941940308
      ],
      "type": "VEC3"
    },
    {
      "bufferView": 1,
      "byteOffset": 886304,
      "componentType": 5126,
      "count": 65532,
      "max": [
        0.99855798482894897,
        0.99799597263336182
      ],
      "min": [
        0.0019700000993907452,
        0.0090659996494650841
      ],
      "type": "VEC2"
    },
    {
      "bufferView": 0,
      "byteOffset": 1201344,
      "componentType": 5125,
      "count": 262221,
      "max": [
        65531
      ],
      "min": [
        0
      ],
      "type": "SCALAR"
    },
    {
      "bufferView": 2,
      "byteOffset": 4231680,
      "componentType": 5126,
      "count": 37139,
      "max": [
        24.597532272338867,
        17.794601440429688,
        34.818843841552734
      ],
      "min": [
        -24.278156280517578,
        5.8362979888916016,
        -13.897351264953613
      ],
      "type": "VEC3"
    },
    {
      "bufferView": 2,
      "byteOffset": 4677348,
      "componentType": 5126,
      "count": 37139,
      "max": [
        0.99972414970397949,
        0.99829971790313721,
        0.99998587369918823
      ],
      "min": [
        -0.99988985061645508,
        -0.99999982118606567,
        -0.99994754791259766
      ],
      "type": "VEC3"
    },
    {
      "bufferView": 1,
      "byteOffset": 1410560,
      "componentType": 5126,
      "count": 37139,
      "max": [
        0.99827301502227783,
        0.99803298711776733
      ],
      "min": [
        0.0019920000340789557,
        0.009000999853014946
      ],
      "type": "VEC2"
    },
    {
      "bufferView": 0,
      "byteOffset": 2250228,
      "componentType": 5125,
      "count": 125430,
      "max": [
        37138
      ],
      "min": [
        0
      ],
      "type": "SCALAR"
    },
    {
      "bufferView": 2,
      "byteOffset": 5123016,
      "componentType": 5126,
      "count": 65532,
      "max": [
        24.657819747924805,
        17.88023567199707,
        34.847610473632812
      ],
      "min": [
        -24.458602905273438,
        6.3561592102050781,
        -14.62202262878418
      ],
      "type": "VEC3"
    },
    {
      "bufferView": 2,
      "byteOffset": 5909400,
      "componentType": 5126,
      "count": 65532,
      "max": [
        0.9999619722366333,
        0.99983328580856323,
        0.99998259544372559
      ],
      "min": [
        -0.99998223781585693,
        -1,
        -0.99998742341995239
      ],
      "type": "VEC3"
    },
    {
      "bufferView": 1,
      "byteOffset": 1707672,
      "componentType": 5126,
      "count": 65532,
      "max": [
        0.99833101034164429,
        0.99796199798583984
      ],
      "min": [
        0.0019539999775588512,
        0.0055100000463426113
      ],
      "type": "VEC2"
    },
    {
      "bufferView": 0,
      "byteOffset": 2751948,
      "componentType": 5125,
      "count": 288309,
      "max": [
        65531
      ],
      "min": [
        0
      ],
      "type": "SCALAR"
    },
    {
      "bufferView": 2,
      "byteOffset": 6695784,
      "componentType": 5126,
      "count": 23041,
      "max": [
        24.572376251220703,
        17.837062835693359,
        34.836662292480469
      ],
      "min": [
        -24.324590682983398,
        6.3003010749816895,
        -14.600785255432129
      ],
      "type": "VEC3"
    },
    {
      "bufferView": 2,
      "byteOffset": 6972276,
      "componentType": 5126,
      "count": 23041,
      "max": [
        0.9999619722366333,
        0.99863046407699585,
        0.99975007772445679
      ],
      "min": [
        -0.99994271993637085,
        -1,
        -0.99993151426315308
      ],
      "type": "VEC3"
    },
    {
      "bufferView": 1,
      "byteOffset": 2231928,
      "componentType": 5126,
      "count": 23041,
      "max": [
        0.99865901470184326,
        0.99803900718688965
      ],
      "min": [
        0.0019759999122470617,
        0.0055720000527799129
      ],
      "type": "VEC2"
    },
    {
      "bufferView": 0,
      "byteOffset": 3905184,
      "componentType": 5125,
      "count": 73725,
      "max": [
        23040
      ],
      "min": [
        0
      ],
      "type": "SCALAR"
    },
    {
      "bufferView": 2,
      "byteOffset": 7248768,
      "componentType": 5126,
      "count": 53867,
      "max": [
        24.592208862304688,
        17.852272033691406,
        34.784996032714844
      ],
      "min": [
        -24.489847183227539,
        6.00665283203125,
        -14.464690208435059
      ],
      "type": "VEC3"
    },
    {
      "bufferView": 2,
      "byteOffset": 7895172,
      "componentType": 5126,
      "count": 53867,
      "max": [
        0.99997133016586304,
        0.99977272748947144,
        0.99995505809783936
      ],
      "min": [
        -0.99999642372131348,
        -0.99999833106994629,
        -0.99992841482162476
      ],
      "type": "VEC3"
    },
    {
      "bufferView": 1,
      "byteOffset": 2416256,
      "componentType": 5126,
      "count": 53867,
      "max": [
        0.99896001815795898,
        0.99799501895904541
      ],
      "min": [
        0.0020099999383091927,
        0.05508200079202652
      ],
      "type": "VEC2"
    },
    {
      "bufferView": 0,
      "byteOffset": 4200084,
      "componentType": 5125,
      "count": 249039,
      "max": [
        53866
      ],
      "min": [
        0
      ],
      "type": "SCALAR"
    },
    {
      "bufferView": 2,
      "byteOffset": 8541576,
      "componentType": 5126,
      "count": 42314,
      "max": [
        24.636014938354492,
        17.82000732421875,
        34.831546783447266
      ],
      "min": [
        -24.456880569458008,
        7.0211992263793945,
        -14.445583343505859
      ],
      "type": "VEC3"
    },
    {
      "bufferView": 2,
      "byteOffset": 9049344,
      "componentType": 5126,
      "count": 42314,
      "max": [
        0.99985730648040771,
        0.99933403730392456,
        0.99991053342819214
      ],
      "min": [
        -0.99996078014373779,
        -0.99999988079071045,
        -0.99984222650527954
      ],
      "type": "VEC3"
    },
    {
      "bufferView": 1,
      "byteOffset": 2847192,
      "componentType": 5126,
      "count": 42314,
      "max": [
        0.99692398309707642,
        0.99804002046585083
      ],
      "min": [
        0.0026320000179111958,
        0.055626001209020615
      ],
      "type": "VEC2"
    },
    {
      "bufferView": 0,
      "byteOffset": 5196240,
      "componentType": 5125,
      "count": 206016,
      "max": [
        42313
      ],
      "min": [
        0
      ],
      "type": "SCALAR"
    },
    {
      "bufferView": 2,
      "byteOffset": 9557112,
      "componentType": 5126,
      "count": 1506,
      "max": [
        8.6094818115234375,
        17.691009521484375,
        7.2500519752502441
      ],
      "min": [
        -6.0223188400268555,
        13.893560409545898,
        -7.5250401496887207
      ],
      "type": "VEC3"
    },
    {
      "bufferView": 2,
      "byteOffset": 9575184,
      "componentType": 5126,
      "count": 1506,
      "max": [
        0.99698609113693237,
        0.99440568685531616,
        0.69309687614440918
      ],
      "min": [
        -0.99989545345306396,
        -0.9997742772102356,
        -0.99947577714920044
      ],
      "type": "VEC3"
    },
    {
      "bufferView": 1,
      "byteOffset": 3185704,
      "componentType": 5126,
      "count": 1506,
      "max": [
        0.93021398782730103,
        0.9944949746131897
      ],
      "min": [
        0.0044049997813999653,
        0.09068000316619873
      ],
      "type": "VEC2"
    },
    {
      "bufferView": 0,
      "byteOffset": 6020304,
      "componentType": 5125,
      "count": 5022,
      "max": [
        1505
      ],
      "min": [
        0
      ],
      "type": "SCALAR"
    }
  ],
  "asset": {
    "extras": {
      "author": "Saulius.Zaura (https://sketchfab.com/Saulius.Zaura)",
      "license": "CC-BY-NC-ND-4.0 (http://creativecommons.org/licenses/by-nc-nd/4.0/)",
      "source": "https://sketchfab.com/3d-models/art-deco-vila-perkuno-al-kaune-20201020-47c00cdcd04640e3b119c94b9e0124f7",
      "title": "Art deco vila Perkūno al. Kaune 2020.10.20"
    },
    "generator": "Sketchfab-9.52.0",
    "version": "2.0"
  },
  "bufferViews": [
    {
      "buffer": 0,
      "byteLength": 6040392,
      "byteOffset": 0,
      "name": "floatBufferViews",
      "target": 34963
    },
    {
      "buffer": 0,
      "byteLength": 3197752,
      "byteOffset": 6040392,
      "byteStride": 8,
      "name": "floatBufferViews",
      "target": 34962
    },
    {
      "buffer": 0,
      "byteLength": 9593256,
      "byteOffset": 9238144,
      "byteStride": 12,
      "name": "floatBufferViews",
      "target": 34962
    }
  ],
  "buffers": [
    {
      "byteLength": 18831400,
      "uri": "scene.bin"
    }
  ],
  "extensionsUsed": [
    "KHR_materials_unlit"
  ],
  "images": [
    {
      "uri": "textures/material_00_baseColor.jpeg"
    },
    {
      "uri": "textures/material_01_baseColor.jpeg"
    },
    {
      "uri": "textures/material_02_baseColor.jpeg"
    },
    {
      "uri": "textures/material_03_baseColor.jpeg"
    },
    {
      "uri": "textures/material_04_baseColor.jpeg"
    },
    {
      "uri": "textures/material_05_baseColor.jpeg"
    }
  ],
  "materials": [
    {
      "doubleSided": true,
      "emissiveFactor": [
        0,
        0,
        0
      ],
      "extensions": {
        "KHR_materials_unlit": {}
      },
      "name": "material_00",
      "pbrMetallicRoughness": {
        "baseColorFactor": [
          1,
          1,
          1,
          1
        ],
        "baseColorTexture": {
          "index": 0,
          "texCoord": 0
        },
        "metallicFactor": 0,
        "roughnessFactor": 1
      }
    },
    {
      "doubleSided": true,
      "emissiveFactor": [
        0,
        0,
        0
      ],
      "extensions": {
        "KHR_materials_unlit": {}
      },
      "name": "material_01",
      "pbrMetallicRoughness": {
        "baseColorFactor": [
          1,
          1,
          1,
          1
        ],
        "baseColorTexture": {
          "index": 1,
          "texCoord": 0
        },
        "metallicFactor": 0,
        "roughnessFactor": 1
      }
    },
    {
      "doubleSided": true,
      "emissiveFactor": [
        0,
        0,
        0
      ],
      "extensions": {
        "KHR_materials_unlit": {}
      },
      "name": "material_02",
      "pbrMetallicRoughness": {
        "baseColorFactor": [
          1,
          1,
          1,
          1
        ],
        "baseColorTexture": {
          "index": 2,
          "texCoord": 0
        },
        "metallicFactor": 0,
        "roughnessFactor": 1
      }
    },
    {
      "doubleSided": true,
      "emissiveFactor": [
        0,
        0,
        0
      ],
      "extensions": {
        "KHR_materials_unlit": {}
      },
      "name": "material_03",
      "pbrMetallicRoughness": {
        "baseColorFactor": [
          1,
          1,
          1,
          1
        ],
        "baseColorTexture": {
          "index": 3,
          "texCoord": 0
        },
        "metallicFactor": 0,
        "roughnessFactor": 1
      }
    },
    {
      "doubleSided": true,
      "emissiveFactor": [
        0,
        0,
        0
      ],
      "extensions": {
        "KHR_materials_unlit": {}
      },
      "name": "material_04",
      "pbrMetallicRoughness": {
        "baseColorFactor": [
          1,
          1,
          1,
          1
        ],
        "baseColorTexture": {
          "index": 4,
          "texCoord": 0
        },
        "metallicFactor": 0,
        "roughnessFactor": 1
      }
    },
    {
      "doubleSided": true,
      "emissiveFactor": [
        0,
        0,
        0
      ],
      "extensions": {
        "KHR_materials_unlit": {}
      },
      "name": "material_05",
      "pbrMetallicRoughness": {
        "baseColorFactor": [
          1,
          1,
          1,
          1
        ],
        "baseColorTexture": {
          "index": 5,
          "texCoord": 0
        },
        "metallicFactor": 0,
        "roughnessFactor": 1
      }
    }
  ],
  "meshes": [
    {
      "primitives": [
        {
          "attributes": {
            "NORMAL": 1,
            "POSITION": 0,
            "TEXCOORD_0": 2
          },
          "indices": 3,
          "material": 0,
          "mode": 4
        }
      ]
    },
    {
      "primitives": [
        {
          "attributes": {
            "NORMAL": 5,
            "POSITION": 4,
            "TEXCOORD_0": 6
          },
          "indices": 7,
          "material": 0,
          "mode": 4
        }
      ]
    },
    {
      "primitives": [
        {
          "attributes": {
            "NORMAL": 9,
            "POSITION": 8,
            "TEXCOORD_0": 10
          },
          "indices": 11,
          "material": 1,
          "mode": 4
        }
      ]
    },
    {
      "primitives": [
        {
          "attributes": {
            "NORMAL": 13,
            "POSITION": 12,
            "TEXCOORD_0": 14
          },
          "indices": 15,
          "material": 1,
          "mode": 4
        }
      ]
    },
    {
      "primitives": [
        {
          "attributes": {
            "NORMAL": 17,
            "POSITION": 16,
            "TEXCOORD_0": 18
          },
          "indices": 19,
          "material": 2,
          "mode": 4
        }
      ]
    },
    {
      "primitives": [
        {
          "attributes": {
            "NORMAL": 21,
            "POSITION": 20,
            "TEXCOORD_0": 22
          },
          "indices": 23,
          "material": 2,
          "mode": 4
        }
      ]
    },
    {
      "primitives": [
        {
          "attributes": {
            "NORMAL": 25,
            "POSITION": 24,
            "TEXCOORD_0": 26
          },
          "indices": 27,
          "material": 3,
          "mode": 4
        }
      ]
    },
    {
      "primitives": [
        {
          "attributes": {
            "NORMAL": 29,
            "POSITION": 28,
            "TEXCOORD_0": 30
          },
          "indices": 31,
          "material": 4,
          "mode": 4
        }
      ]
    },
    {
      "primitives": [
        {
          "attributes": {
            "NORMAL": 33,
            "POSITION": 32,
            "TEXCOORD_0": 34
          },
          "indices": 35,
          "material": 5,
          "mode": 4
        }
      ]
    }
  ],
  "nodes": [
    {
      "children": [
        1
      ],
      "name": "RootNode (gltf orientation matrix)",
      "rotation": [
        -0.70710678118654746,
        -0,
        -0,
        0.70710678118654757
      ]
    },
    {
      "children": [
        2
      ],
      "matrix": [
        0.9996875524520874,
        0.00045082502765581012,
        0.024992652237415314,
        0,
        0.024988861754536629,
        -0.043091602623462677,
        -0.99875855445861816,
        0,
        0.000626708148047328,
        0.99907100200653076,
        -0.043089404702186584,
        0,
        -0.30165261030197144,
        2.224693775177002,
        22.350759506225586,
        1
      ],
      "name": "RootNode (model correction matrix)"
    },
    {
      "children": [
        3,
        4,
        5,
        6,
        7,
        8,
        9,
        10,
        11
      ],
      "name": "scene_mesh_textured.obj.cleaner.materialmerger.gles"
    },
    {
      "mesh": 0,
      "name": ""
    },
    {
      "mesh": 1,
      "name": ""
    },
    {
      "mesh": 2,
      "name": ""
    },
    {
      "mesh": 3,
      "name": ""
    },
    {
      "mesh": 4,
      "name": ""
    },
    {
      "mesh": 5,
      "name": ""
    },
    {
      "mesh": 6,
      "name": ""
    },
    {
      "mesh": 7,
      "name": ""
    },
    {
      "mesh": 8,
      "name": ""
    }
  ],
  "samplers": [
    {
      "magFilter": 9729,
      "minFilter": 9987,
      "wrapS": 10497,
      "wrapT": 10497
    }
  ],
  "scene": 0,
  "scenes": [
    {
      "name": "OSG_Scene",
      "nodes": [
        0
      ]
    }
  ],
  "textures": [
    {
      "sampler": 0,
      "source": 0
    },
    {
      "sampler": 0,
      "source": 1
    },
    {
      "sampler": 0,
      "source": 2
    },
    {
      "sampler": 0,
      "source": 3
    },
    {
      "sampler": 0,
      "source": 4
    },
    {
      "sampler": 0,
      "source": 5
    }
  ]
}

